<svg width="100" height="100" viewBox="0 0 100 100" fill="none" xmlns="http://www.w3.org/2000/svg">
<path d="M91.8387 79.9L79.0323 76.2065V72.9597C80.7371 71.5903 82.0855 69.7984 82.921 67.7419H83.871C87.429 67.7419 90.3226 64.8484 90.3226 61.2903V46.9726C90.3226 42.471 87.3742 38.5452 83.0984 37.2677L81.6242 35.7935C78.3032 32.4742 73.8887 30.6452 69.1919 30.6452C67.571 30.6452 66.0065 30.8839 64.5161 31.2968V16.129C66.2952 16.129 67.7419 14.6823 67.7419 12.9032V9.67742C67.7419 7.89839 66.2952 6.45161 64.5161 6.45161H46.1161C43.7242 2.44839 39.4452 0 34.7242 0H33.0194C28.2968 0 24.0194 2.44839 21.6274 6.45161H3.22581C1.44677 6.45161 0 7.89839 0 9.67742V12.9032C0 14.6823 1.44677 16.129 3.22581 16.129V58.0645H32.2581V76.0355C29.4823 76.7565 27.4194 79.2597 27.4194 82.2581C27.4194 85.8161 30.3129 88.7097 33.871 88.7097C37.429 88.7097 40.3226 85.8161 40.3226 82.2581C40.3226 79.2597 38.2597 76.7565 35.4839 76.0355V58.0645H51.6129V61.2903C51.6129 64.8484 54.5065 67.7419 58.0645 67.7419H59.0145C59.85 69.7984 61.1984 71.5903 62.9032 72.9597V76.2065L50.0968 79.9C45.2919 81.2871 41.9355 85.7468 41.9355 90.7484V100H100V90.7484C100 85.7468 96.6435 81.2871 91.8387 79.9ZM37.0968 82.2581C37.0968 84.0371 35.65 85.4839 33.871 85.4839C32.0919 85.4839 30.6452 84.0371 30.6452 82.2581C30.6452 80.479 32.0919 79.0323 33.871 79.0323C35.65 79.0323 37.0968 80.479 37.0968 82.2581ZM81.5742 80.2968L78.3839 87.7403L73.3806 83.7387L77.8855 79.2339L81.5742 80.2968ZM83.871 64.5161H83.7597C83.8258 63.9871 83.871 63.45 83.871 62.9032V58.0645C85.65 58.0645 87.0968 59.5113 87.0968 61.2903C87.0968 63.0694 85.65 64.5161 83.871 64.5161ZM3.22581 9.67742H23.5774L24.0226 8.78548C25.7371 5.35645 29.1855 3.22581 33.0194 3.22581H34.7242C38.5581 3.22581 42.0065 5.35645 43.7194 8.78548L44.1645 9.67742H64.5161V12.9032H3.22581V9.67742ZM6.45161 54.8387V16.129H61.2903V32.5435C55.5597 35.4436 51.6129 41.3758 51.6129 48.2258V54.8387H6.45161ZM58.0645 64.5161C56.2855 64.5161 54.8387 63.0694 54.8387 61.2903C54.8387 59.5113 56.2855 58.0645 58.0645 58.0645V62.9032C58.0645 63.45 58.1097 63.9871 58.1758 64.5161H58.0645ZM58.4855 54.8387H58.0645C56.8839 54.8387 55.7919 55.1806 54.8387 55.7355V48.2242C54.8387 40.3097 61.2774 33.871 69.1919 33.871C73.0258 33.871 76.6307 35.3645 79.3419 38.0742L81.4323 40.1645L81.8677 40.2726C84.9468 41.0452 87.0968 43.7984 87.0968 46.9726V55.7355C86.1435 55.1806 85.0516 54.8387 83.871 54.8387H83.45C82.479 52.0323 79.8387 50 76.7065 50C75.9339 50 75.1726 50.1242 74.4403 50.3677L70.9677 51.5258L67.4952 50.3677C66.7629 50.1242 66 50 65.2274 50C62.0952 50 59.4565 52.0323 58.4855 54.8387ZM61.2903 62.9032V57.1629C61.2903 54.9919 63.0565 53.2258 65.2274 53.2258C65.6516 53.2258 66.0694 53.2936 66.4726 53.4274L70.9677 54.9258L75.4613 53.4274C75.8645 53.2936 76.2839 53.2258 76.7065 53.2258C78.879 53.2258 80.6452 54.9919 80.6452 57.1629V62.9032C80.6452 68.2403 76.3048 72.5806 70.9677 72.5806C65.6306 72.5806 61.2903 68.2403 61.2903 62.9032ZM70.9677 75.8064C72.679 75.8064 74.3113 75.4645 75.8064 74.8565V76.7516L70.9677 81.5903L66.129 76.7516V74.8565C67.6242 75.4645 69.2565 75.8064 70.9677 75.8064ZM64.0484 79.2323L68.5532 83.7371L63.55 87.7387L60.3597 80.2952L64.0484 79.2323ZM45.1613 90.7484C45.1613 87.1774 47.5581 83.9919 50.9903 83L57.2371 81.1968L62.2548 92.9048L69.3548 87.2274V96.7742H54.8387V87.0968H51.6129V96.7742H45.1613V90.7484ZM96.7742 96.7742H90.3226V87.0968H87.0968V96.7742H72.5806V87.2274L79.679 92.9065L84.6968 81.1984L90.9436 83.0016C94.3774 83.9903 96.7742 87.1774 96.7742 90.7484V96.7742Z" fill="#FB7D09"/>
<path d="M38.7096 6.4516H29.0322V9.67741H38.7096V6.4516Z" fill="#FB7D09"/>
<path d="M33.8712 19.3549C24.9777 19.3549 17.7422 26.5903 17.7422 35.4839C17.7422 44.3774 24.9777 51.6129 33.8712 51.6129C42.7648 51.6129 50.0003 44.3774 50.0003 35.4839C50.0003 26.5903 42.7648 19.3549 33.8712 19.3549ZM41.7712 25.3032L39.4696 27.6032C37.8874 26.4774 35.9583 25.8065 33.8712 25.8065C31.7841 25.8065 29.8551 26.4774 28.2728 27.6049L25.9712 25.3049C28.1567 23.6032 30.8938 22.5807 33.8712 22.5807C36.8486 22.5807 39.5857 23.6032 41.7712 25.3032ZM27.4196 35.4839C27.4196 31.9258 30.3132 29.0323 33.8712 29.0323C37.4293 29.0323 40.3228 31.9258 40.3228 35.4839C40.3228 39.042 37.4293 41.9355 33.8712 41.9355C30.3132 41.9355 27.4196 39.042 27.4196 35.4839ZM23.6906 27.5855L25.9922 29.8855C24.8648 31.4678 24.1938 33.3968 24.1938 35.4839C24.1938 37.571 24.8648 39.5 25.9922 41.0823L23.6906 43.3823C21.9906 41.1968 20.968 38.4613 20.968 35.4839C20.968 32.5065 21.9906 29.771 23.6906 27.5855ZM25.9712 45.6645L28.2728 43.3645C29.8551 44.4903 31.7841 45.1613 33.8712 45.1613C35.9583 45.1613 37.8874 44.4903 39.4696 43.3629L41.7712 45.6629C39.5857 47.3645 36.8486 48.3871 33.8712 48.3871C30.8938 48.3871 28.1567 47.3645 25.9712 45.6645ZM44.0519 43.3823L41.7503 41.0823C42.8777 39.5 43.5486 37.571 43.5486 35.4839C43.5486 33.3968 42.8777 31.4678 41.7503 29.8855L44.0519 27.5855C45.7519 29.771 46.7744 32.5065 46.7744 35.4839C46.7744 38.4613 45.7519 41.1968 44.0519 43.3823Z" fill="#FB7D09"/>
<path d="M19.3542 19.3549H9.67676V22.5807H19.3542V19.3549Z" fill="#FB7D09"/>
<path d="M19.3542 48.3871H9.67676V51.6129H19.3542V48.3871Z" fill="#FB7D09"/>
</svg>
