<svg width="100" height="100" viewBox="0 0 100 100" fill="none" xmlns="http://www.w3.org/2000/svg">
<path d="M44.0343 45.5862C55.7942 45.5862 65.3274 36.053 65.3274 24.2931C65.3274 12.5332 55.7942 3 44.0343 3C32.2745 3 22.7412 12.5332 22.7412 24.2931C22.7412 36.053 32.2745 45.5862 44.0343 45.5862Z" stroke="#FB7D09" stroke-width="3" stroke-linecap="round" stroke-linejoin="round"/>
<path d="M47.3103 19.3793H42.3965V29.2069" stroke="#FB7D09" stroke-width="3" stroke-linecap="round" stroke-linejoin="round"/>
<path d="M47.3103 24.2931H42.3965" stroke="#FB7D09" stroke-width="3" stroke-linecap="round" stroke-linejoin="round"/>
<path d="M37.4824 25.9311L30.9307 19.3793V29.2069" stroke="#FB7D09" stroke-width="3" stroke-linecap="round" stroke-linejoin="round"/>
<path d="M37.4824 19.3793V29.2069" stroke="#FB7D09" stroke-width="3" stroke-linecap="round" stroke-linejoin="round"/>
<path d="M52.2236 19.3793H58.7754" stroke="#FB7D09" stroke-width="3" stroke-linecap="round" stroke-linejoin="round"/>
<path d="M55.5 29.2069V19.3793" stroke="#FB7D09" stroke-width="3" stroke-linecap="round" stroke-linejoin="round"/>
<path d="M71.2012 80.9423L75.8339 85.575" stroke="#FB7D09" stroke-width="3" stroke-linecap="round" stroke-linejoin="round"/>
<path d="M75.8339 80.9423L71.2012 85.575" stroke="#FB7D09" stroke-width="3" stroke-linecap="round" stroke-linejoin="round"/>
<path d="M89.9035 88.47C90.8706 88.47 91.6546 87.686 91.6546 86.7189C91.6546 85.7518 90.8706 84.9678 89.9035 84.9678C88.9363 84.9678 88.1523 85.7518 88.1523 86.7189C88.1523 87.686 88.9363 88.47 89.9035 88.47Z" fill="#FB7D09"/>
<path d="M11.2759 81.6207C13.0851 81.6207 14.5517 80.154 14.5517 78.3448C14.5517 76.5356 13.0851 75.069 11.2759 75.069C9.46665 75.069 8 76.5356 8 78.3448C8 80.154 9.46665 81.6207 11.2759 81.6207Z" stroke="#FB7D09" stroke-width="3" stroke-linecap="round" stroke-linejoin="round"/>
<path d="M41.288 52.1379H53.8617C53.8617 53.8756 53.1715 55.542 51.9428 56.7707C50.7141 57.9994 49.0476 58.6897 47.31 58.6897H37.4824V55.9435C37.4824 54.9342 37.8834 53.9662 38.597 53.2526C39.3107 52.5389 40.2787 52.1379 41.288 52.1379Z" stroke="#FB7D09" stroke-width="3" stroke-linecap="round" stroke-linejoin="round"/>
<path d="M37.4824 58.6896H50.5859V73.431H44.3434C42.5237 73.431 40.7786 72.7082 39.492 71.4215C38.2053 70.1348 37.4824 68.3897 37.4824 66.57V58.6896Z" stroke="#FB7D09" stroke-width="3" stroke-linecap="round" stroke-linejoin="round"/>
<path d="M53.8621 98L55.5001 79.9828L67.4846 69.3451C67.8361 69.0375 68.1177 68.6584 68.3107 68.2332C68.5036 67.8079 68.6035 67.3463 68.6035 66.8793V47.2242C68.6035 46.3554 68.2584 45.5221 67.644 44.9078C67.0297 44.2934 66.1965 43.9483 65.3277 43.9483C64.4588 43.9483 63.6256 44.2934 63.0113 44.9078C62.3969 45.5221 62.0518 46.3554 62.0518 47.2242V65.3926L52.865 73.4311H36.8421L27.6552 65.3926V47.2242C27.6552 46.3554 27.3101 45.5221 26.6958 44.9078C26.0814 44.2934 25.2482 43.9483 24.3794 43.9483C23.5106 43.9483 22.6773 44.2934 22.063 44.9078C21.4487 45.5221 21.1035 46.3554 21.1035 47.2242V66.8793C21.1035 67.3463 21.2034 67.8079 21.3964 68.2332C21.5893 68.6584 21.871 69.0375 22.2224 69.3451L34.207 79.9828L35.8449 98" stroke="#FB7D09" stroke-width="3" stroke-linecap="round" stroke-linejoin="round"/>
<path d="M71.8789 24.2931H78.4306" stroke="#FB7D09" stroke-width="3" stroke-linecap="round" stroke-linejoin="round"/>
<path d="M71.8789 19.3793L74.3358 16.9224" stroke="#FB7D09" stroke-width="3" stroke-linecap="round" stroke-linejoin="round"/>
<path d="M71.8789 29.2069L74.3358 31.6638" stroke="#FB7D09" stroke-width="3" stroke-linecap="round" stroke-linejoin="round"/>
<path d="M16.1894 24.2931H9.6377" stroke="#FB7D09" stroke-width="3" stroke-linecap="round" stroke-linejoin="round"/>
<path d="M16.1893 19.3793L13.7324 16.9224" stroke="#FB7D09" stroke-width="3" stroke-linecap="round" stroke-linejoin="round"/>
<path d="M16.1893 29.2069L13.7324 31.6638" stroke="#FB7D09" stroke-width="3" stroke-linecap="round" stroke-linejoin="round"/>
<path d="M62.0518 50.5H68.6035" stroke="#FB7D09" stroke-width="3" stroke-linejoin="round"/>
<path d="M21.1035 50.5H27.6552" stroke="#FB7D09" stroke-width="3" stroke-linejoin="round"/>
</svg>
