<svg width="100" height="100" viewBox="0 0 100 100" fill="none" xmlns="http://www.w3.org/2000/svg">
<path d="M63.7026 72.909H10.8908C6.29151 72.909 2.52832 69.1458 2.52832 64.5465V23.6993C2.52832 19.1 6.29151 15.3368 10.8908 15.3368H69.0651C73.6644 15.3368 77.4276 19.1 77.4276 23.6993V39.3493" stroke="#FB7D09" stroke-width="2" stroke-miterlimit="10" stroke-linecap="round" stroke-linejoin="round"/>
<path d="M63.7024 60.9305H10.9455C8.47465 60.9305 6.45312 58.909 6.45312 56.4382V23.9354C6.45312 21.4645 8.47465 19.4423 10.9462 19.4423H69.0108C71.4816 19.4423 73.5031 21.4638 73.5031 23.9347V38.9868" stroke="#FB7D09" stroke-width="2" stroke-miterlimit="10" stroke-linecap="round" stroke-linejoin="round"/>
<path d="M39.9781 69.5958C41.3607 69.5958 42.4816 68.475 42.4816 67.0923C42.4816 65.7097 41.3607 64.5889 39.9781 64.5889C38.5955 64.5889 37.4746 65.7097 37.4746 67.0923C37.4746 68.475 38.5955 69.5958 39.9781 69.5958Z" stroke="#FB7D09" stroke-width="2" stroke-miterlimit="10" stroke-linecap="round" stroke-linejoin="round"/>
<path d="M47.2989 73.0882C47.2989 73.0882 45.9767 81.6354 52.485 81.6354C44.5538 81.6354 39.469 81.6354 39.469 81.6354H40.2822C40.2822 81.6354 35.4017 81.6354 27.4697 81.6354C33.9774 81.6354 32.5538 73.1771 32.5538 73.1771" stroke="#FB7D09" stroke-width="2" stroke-miterlimit="10" stroke-linecap="round" stroke-linejoin="round"/>
<path d="M40.5273 30.9409H61.3607" stroke="#FB7D09" stroke-width="2" stroke-miterlimit="10" stroke-linecap="round" stroke-linejoin="round"/>
<path d="M40.5273 35.1076H64.8329" stroke="#FB7D09" stroke-width="2" stroke-miterlimit="10" stroke-linecap="round" stroke-linejoin="round"/>
<path opacity="0.3" d="M23.9691 44.2847H11.4844V56.7694H23.9691V44.2847Z" fill="white"/>
<path d="M23.9691 44.2847H11.4844V56.7694H23.9691V44.2847Z" stroke="#FB7D09" stroke-width="2" stroke-miterlimit="10" stroke-linecap="round" stroke-linejoin="round"/>
<path d="M40.9808 44.2847H28.4961V56.7694H40.9808V44.2847Z" stroke="#FB7D09" stroke-width="2" stroke-miterlimit="10" stroke-linecap="round" stroke-linejoin="round"/>
<path d="M57.9925 44.2847H45.5078V56.7694H57.9925V44.2847Z" stroke="#FB7D09" stroke-width="2" stroke-miterlimit="10" stroke-linecap="round" stroke-linejoin="round"/>
<path d="M93.5599 86.7222H67.0801C65.2384 86.7222 63.7314 85.2153 63.7314 83.3736V42.6944C63.7314 40.8528 65.2384 39.3458 67.0801 39.3458H93.5599C95.4016 39.3458 96.9085 40.8528 96.9085 42.6944V83.3736C96.9085 85.2153 95.4016 86.7222 93.5599 86.7222Z" stroke="#FB7D09" stroke-width="2" stroke-miterlimit="10" stroke-linecap="round" stroke-linejoin="round"/>
<path opacity="0.3" d="M81.5661 84.3417C82.4122 84.3417 83.0981 83.6558 83.0981 82.8097C83.0981 81.9636 82.4122 81.2778 81.5661 81.2778C80.7201 81.2778 80.0342 81.9636 80.0342 82.8097C80.0342 83.6558 80.7201 84.3417 81.5661 84.3417Z" fill="white"/>
<path d="M81.5671 83.3416C82.4132 83.3416 83.099 82.6557 83.099 81.8097C83.099 80.9636 82.4132 80.2777 81.5671 80.2777C80.721 80.2777 80.0352 80.9636 80.0352 81.8097C80.0352 82.6557 80.721 83.3416 81.5671 83.3416Z" stroke="#FB7D09" stroke-miterlimit="10" stroke-linecap="round" stroke-linejoin="round"/>
<path d="M91.3581 45.5875H69.665V63.3993H91.3581V45.5875Z" stroke="#FB7D09" stroke-width="2" stroke-miterlimit="10" stroke-linecap="round" stroke-linejoin="round"/>
<path d="M70.3887 68.441H87.0553" stroke="#FB7D09" stroke-width="2" stroke-miterlimit="10" stroke-linecap="round" stroke-linejoin="round"/>
<path d="M70.3887 72.2188H84.2776" stroke="#FB7D09" stroke-width="2" stroke-miterlimit="10" stroke-linecap="round" stroke-linejoin="round"/>
<path d="M87.1787 28.1319V32.459" stroke="#FB7D09" stroke-width="2" stroke-miterlimit="10" stroke-linecap="round" stroke-linejoin="round"/>
<path d="M89.3427 30.2951H85.0156" stroke="#FB7D09" stroke-width="2" stroke-miterlimit="10" stroke-linecap="round" stroke-linejoin="round"/>
<path d="M94.21 12.7562V19.984" stroke="#FB7D09" stroke-width="2" stroke-miterlimit="10" stroke-linecap="round" stroke-linejoin="round"/>
<path d="M97.8238 16.3701H90.5967" stroke="#FB7D09" stroke-width="2" stroke-miterlimit="10" stroke-linecap="round" stroke-linejoin="round"/>
</svg>
