<svg width="70" height="70" viewBox="0 0 70 70" fill="none" xmlns="http://www.w3.org/2000/svg">
<path d="M60 68C60 69.1046 59.1046 70 58 70H47C45.8954 70 45 69.1046 45 68V2C45 0.89543 45.8954 0 47 0H58C59.1046 0 60 0.895431 60 2V68Z" fill="#FB7D09"/>
<path d="M42 68C42 69.1046 41.1046 70 40 70H29C27.8954 70 27 69.1046 27 68V22C27 20.8954 27.8954 20 29 20H40C41.1046 20 42 20.8954 42 22V68Z" fill="#FB7D09"/>
<path d="M24 68C24 69.1046 23.1046 70 22 70H11C9.89543 70 9 69.1046 9 68V42C9 40.8954 9.89543 40 11 40H22C23.1046 40 24 40.8954 24 42V68Z" fill="#FB7D09"/>
</svg>
