<svg width="70" height="71" viewBox="0 0 70 71" fill="none" xmlns="http://www.w3.org/2000/svg">
<g clip-path="url(#clip0_709_3)">
<path d="M7.2479 29.2346L28.5405 51.9626L18.2872 29.2346H7.2479ZM35 55.6196L46.9279 29.2346H23.0721L35 55.6196ZM18.3898 24.8599L25.362 11.7357H16.4075L6.56435 24.8599H18.3897H18.3898ZM41.4595 51.9626L62.7521 29.2346H51.7128L41.4595 51.9626ZM23.3455 24.8599H46.6545L39.6823 11.7357H30.3177L23.3455 24.8599ZM51.6103 24.8599H63.4356L53.5926 11.7357H44.6381L51.6103 24.8599ZM56.4293 8.2496L69.5534 25.7485C69.8724 26.1586 70.0205 26.6314 69.9977 27.1668C69.975 27.7023 69.7813 28.1637 69.4167 28.551L36.6063 63.5487C36.1962 64.0044 35.6608 64.2323 35 64.2323C34.3393 64.2323 33.8038 64.0044 33.3937 63.5487L0.583294 28.551C0.218737 28.1637 0.0250651 27.7023 0.00227865 27.1668C-0.0205078 26.6314 0.127604 26.1586 0.446615 25.7485L13.5708 8.24963C13.9809 7.65719 14.5619 7.36096 15.3138 7.36096H54.6862C55.4381 7.36096 56.0191 7.65715 56.4293 8.2496Z" fill="#FB7D09"/>
</g>
<defs>
<clipPath id="clip0_709_3">
<rect width="70" height="70" fill="white" transform="translate(0 0.4823)"/>
</clipPath>
</defs>
</svg>
