<svg width="26" height="26" viewBox="0 0 26 26" fill="none" xmlns="http://www.w3.org/2000/svg">
<path d="M8.14941 14.1944L18.909 24.7322C19.0334 24.8548 19.1842 24.9392 19.3468 24.9772C19.5093 25.0152 19.6779 25.0056 19.836 24.9491C19.9942 24.8927 20.1364 24.7914 20.2488 24.6553C20.3611 24.5192 20.4398 24.3529 20.4769 24.1727L24.9771 2.2977C25.0148 2.10931 25.0059 1.91305 24.9512 1.72988C24.8966 1.5467 24.7982 1.38348 24.6668 1.25764C24.5353 1.13181 24.3756 1.04808 24.2047 1.01539C24.0338 0.982708 23.8581 1.00229 23.6964 1.07206L1.60266 10.7306C0.716997 11.117 0.836682 12.5558 1.77022 12.7689L8.14941 14.1944Z" stroke="#FB7D09" stroke-width="2" stroke-linecap="round" stroke-linejoin="round"/>
<path d="M8.14941 14.1943L24.4385 1.09863" stroke="#FB7D09" stroke-width="2" stroke-linecap="round" stroke-linejoin="round"/>
<path d="M13.5232 19.4566L9.78909 23.6131C9.65587 23.7637 9.48545 23.8668 9.29947 23.9093C9.11349 23.9518 8.92035 23.9318 8.74461 23.8518C8.56886 23.7719 8.41845 23.6355 8.31247 23.4602C8.20649 23.2849 8.14973 23.0784 8.14941 22.8671V14.1943" stroke="#FB7D09" stroke-width="2" stroke-linecap="round" stroke-linejoin="round"/>
</svg>
