<svg width="18" height="24" viewBox="0 0 18 24" fill="none" xmlns="http://www.w3.org/2000/svg">
<path d="M8.86988 3.63965C5.98544 3.63965 3.63867 5.98632 3.63867 8.87077C3.63867 11.7552 5.98544 14.1019 8.86988 14.1019C11.7543 14.1019 14.1011 11.7552 14.1011 8.87077C14.1011 5.98632 11.7543 3.63965 8.86988 3.63965ZM8.86988 12.6947C6.76128 12.6947 5.04572 10.9793 5.04572 8.87067C5.04572 6.76207 6.76128 5.0467 8.86988 5.0467C10.9785 5.0467 12.6941 6.76217 12.6941 8.87077C12.6941 10.9794 10.9786 12.6947 8.86988 12.6947Z" fill="#FB7D09"/>
<path d="M8.87059 0C3.97932 0 0 3.97932 0 8.87059C0 11.6914 2.36571 15.8941 3.77586 18.1481C4.70366 19.631 5.7007 21.0424 6.5832 22.1221C7.99972 23.855 8.50673 24 8.87068 24C9.24008 24 9.71876 23.8549 11.1309 22.121C12.0153 21.0349 13.0128 19.6244 13.9397 18.1492C15.3595 15.8897 17.7413 11.6795 17.7413 8.87049C17.7413 3.97932 13.762 0 8.87059 0ZM12.9643 17.0537C11.1448 20.0069 9.47449 22.0025 8.86224 22.5119C8.2468 22.0181 6.60355 20.07 4.75873 17.063C2.62874 13.5909 1.40714 10.6048 1.40714 8.87059C1.40705 4.75516 4.75516 1.40705 8.87059 1.40705C12.986 1.40705 16.3341 4.75516 16.3341 8.87059C16.3342 10.5949 15.1059 13.5774 12.9643 17.0537Z" fill="#FB7D09"/>
</svg>
