<svg width="100" height="100" viewBox="0 0 100 100" fill="none" xmlns="http://www.w3.org/2000/svg">
<g clip-path="url(#clip0_434_37)">
<path d="M64.401 93.0601C59.2947 94.9621 53.7697 96 48 96C22.0423 96 1 74.9577 1 49C1 23.0423 22.0423 2 48 2C73.9577 2 95 23.0423 95 49C95 66.0914 85.8766 81.053 72.2344 89.278" stroke="#FB7D09" stroke-width="3" stroke-miterlimit="10" stroke-linecap="round" stroke-linejoin="round"/>
<path d="M58.7839 72.282C59.4079 72.7569 60.1227 72.9742 60.825 72.9742C62.3027 72.9742 63.7249 72.0042 64.1265 70.4027L74.2054 30.0921C74.4782 29.0008 73.6244 28.0283 72.6014 28.0283C72.4069 28.0283 72.2073 28.0637 72.0052 28.1395L50.2586 36.3996M44.1961 38.7034L20.5144 47.7011C19.0594 48.2543 19.0973 50.3257 20.5725 50.8233L27.2716 53.0867L29.7976 53.9405L32.5106 54.8574L39.7098 69.266C39.7123 69.271 39.7149 69.2735 39.7149 69.2786L39.7351 69.3165L39.7401 69.3139C39.8715 69.5792 40.1418 69.7509 40.4323 69.7509C40.6015 69.7509 40.7758 69.6929 40.9274 69.5666L47.6719 63.8476L40.1418 58.1337M40.1418 58.1337L41.67 68.1823L35.317 54.4305L64.0886 37.1473L57.8367 42.6288L55.3106 44.8417L53.795 46.1704L40.1418 58.1337ZM40.1418 58.1337L53.7167 68.4349" stroke="#FB7D09" stroke-width="3" stroke-miterlimit="10" stroke-linecap="round" stroke-linejoin="round"/>
</g>
<defs>
<clipPath id="clip0_434_37">
<rect width="100" height="100" fill="white"/>
</clipPath>
</defs>
</svg>
