<svg width="70" height="70" viewBox="0 0 70 70" fill="none" xmlns="http://www.w3.org/2000/svg">
<path d="M35 70C28.0777 70 21.3108 67.9473 15.5551 64.1014C9.79934 60.2556 5.3133 54.7893 2.66423 48.3939C0.0151653 41.9985 -0.677952 34.9612 0.672531 28.1718C2.02301 21.3825 5.35644 15.1461 10.2513 10.2513C15.1461 5.35644 21.3825 2.02301 28.1718 0.672531C34.9612 -0.677952 41.9985 0.0151653 48.3939 2.66423C54.7893 5.3133 60.2556 9.79934 64.1014 15.5551C67.9473 21.3108 70 28.0777 70 35C70 44.2826 66.3125 53.185 59.7487 59.7487C53.185 66.3125 44.2826 70 35 70ZM35 4.66668C29.0006 4.66668 23.136 6.4457 18.1477 9.77877C13.1594 13.1118 9.27153 17.8493 6.97567 23.3919C4.67981 28.9346 4.07911 35.0337 5.24953 40.9177C6.41995 46.8018 9.30891 52.2067 13.5511 56.4489C17.7933 60.6911 23.1982 63.5801 29.0823 64.7505C34.9664 65.9209 41.0654 65.3202 46.6081 63.0243C52.1508 60.7285 56.8882 56.8406 60.2212 51.8523C63.5543 46.864 65.3333 40.9994 65.3333 35C65.3333 26.9551 62.1375 19.2397 56.4489 13.5511C50.7603 7.8625 43.0449 4.66668 35 4.66668Z" fill="#FB7D09"/>
<path d="M42.2267 49.8733L30.6767 38.3233C30.4604 38.1053 30.2894 37.8467 30.1732 37.5624C30.0571 37.2782 29.9983 36.9737 30 36.6667V18H34.6667V35.71L45.54 46.56L42.2267 49.8733Z" fill="#FB7D09"/>
</svg>
