<svg width="70" height="70" viewBox="0 0 70 70" fill="none" xmlns="http://www.w3.org/2000/svg">
<mask id="path-1-inside-1_714_328" fill="white">
<path d="M46.8397 17.6628C46.8397 18.3156 46.7952 18.9685 46.7136 19.614C46.7507 19.3543 46.7878 19.0872 46.8174 18.8276C46.6394 20.1185 46.2981 21.3723 45.801 22.5742C45.8975 22.3368 46.0013 22.0993 46.0978 21.8619C45.6007 23.0341 44.9627 24.1322 44.1837 25.1412L44.6511 24.5402C43.8795 25.5344 42.9818 26.4321 41.9876 27.2037L42.5886 26.7363C41.5796 27.5078 40.4816 28.1533 39.3094 28.6504C39.5468 28.5539 39.7842 28.4501 40.0216 28.3536C38.8197 28.8507 37.5659 29.192 36.275 29.37C36.5346 29.3329 36.8017 29.2958 37.0614 29.2661C35.7631 29.4368 34.4573 29.4368 33.159 29.2661C33.4186 29.3032 33.6857 29.3403 33.9454 29.37C32.6545 29.192 31.4007 28.8507 30.1988 28.3536C30.4362 28.4501 30.6736 28.5539 30.911 28.6504C29.7388 28.1533 28.6408 27.5153 27.6318 26.7363L28.2327 27.2037C27.2386 26.4321 26.3409 25.5344 25.5693 24.5402L26.0367 25.1412C25.2651 24.1322 24.6197 23.0341 24.1226 21.8619C24.219 22.0993 24.3229 22.3368 24.4193 22.5742C23.9223 21.3723 23.581 20.1185 23.4029 18.8276C23.44 19.0872 23.4771 19.3543 23.5068 19.614C23.3362 18.3156 23.3362 17.0099 23.5068 15.7116C23.4697 15.9712 23.4326 16.2383 23.4029 16.498C23.581 15.2071 23.9223 13.9532 24.4193 12.7514C24.3229 12.9888 24.219 13.2262 24.1226 13.4636C24.6197 12.2914 25.2577 11.1934 26.0367 10.1844L25.5693 10.7853C26.3409 9.79115 27.2386 8.89345 28.2327 8.12187L27.6318 8.58927C28.6408 7.81769 29.7388 7.17223 30.911 6.67516C30.6736 6.7716 30.4362 6.87547 30.1988 6.97192C31.4007 6.47484 32.6545 6.13356 33.9454 5.95551C33.6857 5.9926 33.4186 6.0297 33.159 6.05937C34.4573 5.88874 35.7631 5.88874 37.0614 6.05937C36.8017 6.02228 36.5346 5.98518 36.275 5.95551C37.5659 6.13356 38.8197 6.47484 40.0216 6.97192C39.7842 6.87547 39.5468 6.7716 39.3094 6.67516C40.4816 7.17223 41.5796 7.81027 42.5886 8.58927L41.9876 8.12187C42.9818 8.89345 43.8795 9.79115 44.6511 10.7853L44.1837 10.1844C44.9553 11.1934 45.6007 12.2914 46.0978 13.4636C46.0013 13.2262 45.8975 12.9888 45.801 12.7514C46.2981 13.9532 46.6394 15.2071 46.8174 16.498C46.7803 16.2383 46.7432 15.9712 46.7136 15.7116C46.7952 16.357 46.8323 17.0099 46.8397 17.6628C46.8471 19.2133 48.1974 20.7046 49.8073 20.6304C51.4098 20.5562 52.7823 19.3246 52.7749 17.6628C52.7601 14.109 51.6917 10.4737 49.5996 7.58028C49.0357 6.80128 48.4348 6.03712 47.7671 5.34715C47.0919 4.64976 46.35 4.04881 45.5785 3.46271C44.1763 2.39437 42.6108 1.60795 40.949 0.999585C34.2496 -1.45612 26.1702 0.732499 21.6372 6.25227C21.014 7.00901 20.4205 7.79543 19.916 8.6412C19.4115 9.47955 19.0183 10.3698 18.6547 11.275C17.9722 12.9517 17.6235 14.7322 17.4825 16.5351C17.208 20.0665 18.128 23.7538 19.9679 26.7808C21.7411 29.7039 24.4193 32.2115 27.5502 33.6285C28.4701 34.044 29.4124 34.4298 30.3917 34.7043C31.3636 34.9714 32.3503 35.1198 33.3519 35.2385C35.177 35.4536 37.0391 35.3052 38.842 34.9417C45.6897 33.5469 51.4247 27.6488 52.4856 20.7268C52.6414 19.7178 52.7601 18.7088 52.7601 17.685C52.7675 16.1344 51.3876 14.6432 49.7925 14.7174C48.19 14.7693 46.8397 16.0009 46.8397 17.6628ZM56.6848 64.0541H18.6176C16.9335 64.0541 15.2494 64.0689 13.5653 64.0541C13.3798 64.0541 13.1943 64.0392 13.0163 64.017C13.2759 64.0541 13.543 64.0911 13.8027 64.1208C13.5059 64.0763 13.224 63.9947 12.9495 63.8834C13.1869 63.9799 13.4243 64.0837 13.6617 64.1802C13.365 64.0541 13.0905 63.8908 12.8308 63.6905L13.4317 64.1579C13.2092 63.9724 13.0014 63.7721 12.8234 63.5496L13.2908 64.1505C13.0905 63.8908 12.9347 63.6163 12.8011 63.3196C12.8976 63.557 13.0014 63.7944 13.0979 64.0318C12.9866 63.7573 12.9124 63.4679 12.8605 63.1786C12.8976 63.4383 12.9347 63.7054 12.9643 63.965C12.8456 63.0673 12.9272 62.1177 12.9272 61.2126V58.0372C12.9272 57.2434 12.9718 56.4569 13.0756 55.6705C13.0385 55.9302 13.0014 56.1973 12.9718 56.4569C13.1795 54.936 13.5801 53.4448 14.1811 52.0278C14.0846 52.2652 13.9807 52.5026 13.8843 52.74C14.463 51.3897 15.2049 50.1211 16.1026 48.9563L15.6352 49.5572C16.5329 48.4073 17.5641 47.3686 18.7215 46.4709L18.1206 46.9383C19.2854 46.0406 20.554 45.2987 21.9043 44.72C21.6669 44.8165 21.4295 44.9203 21.1921 45.0168C22.6091 44.4233 24.0929 44.0152 25.6212 43.8075C25.3616 43.8446 25.0945 43.8817 24.8348 43.9113C25.9328 43.7704 27.0234 43.763 28.1289 43.763H41.7057C42.9299 43.763 44.1466 43.7555 45.3707 43.9113C45.1111 43.8742 44.844 43.8372 44.5843 43.8075C46.1052 44.0152 47.5964 44.4158 49.0135 45.0168C48.7761 44.9203 48.5387 44.8165 48.3012 44.72C49.6515 45.2987 50.9202 46.0406 52.085 46.9383L51.484 46.4709C52.634 47.3686 53.6726 48.3999 54.5703 49.5572L54.1029 48.9563C55.0006 50.1211 55.7425 51.3897 56.3212 52.74C56.2248 52.5026 56.1209 52.2652 56.0245 52.0278C56.618 53.4448 57.026 54.9286 57.2338 56.4569C57.1967 56.1973 57.1596 55.9302 57.1299 55.6705C57.2709 56.7908 57.2783 57.9037 57.2783 59.0314V62.7038C57.2783 63.1267 57.2931 63.5496 57.2412 63.965C57.2783 63.7054 57.3154 63.4383 57.3451 63.1786C57.3005 63.4754 57.2189 63.7573 57.1077 64.0318C57.2041 63.7944 57.308 63.557 57.4044 63.3196C57.2783 63.6163 57.1151 63.8908 56.9148 64.1505L57.3822 63.5496C57.1967 63.7721 56.9964 63.9799 56.7738 64.1579L57.3747 63.6905C57.1151 63.8908 56.8406 64.0466 56.5438 64.1802C56.7812 64.0837 57.0186 63.9799 57.256 63.8834C56.9815 63.9947 56.6922 64.0689 56.4028 64.1208C56.6625 64.0837 56.9296 64.0466 57.1893 64.017C57.026 64.0392 56.8554 64.0466 56.6848 64.0541C55.9206 64.0615 55.1342 64.3805 54.5852 64.9221C54.0733 65.434 53.68 66.2798 53.7171 67.0217C53.7913 68.6093 55.0229 70.0115 56.6848 69.9893C59.5708 69.9448 62.1081 68.0603 62.9539 65.293C63.2877 64.195 63.2135 63.0154 63.2135 61.8877C63.2135 59.3059 63.2951 56.7463 62.85 54.1867C62.1971 50.4401 60.3127 46.9161 57.7309 44.1488C55.149 41.3815 51.6769 39.3486 48.0045 38.4435C45.8975 37.9242 43.7756 37.8426 41.6241 37.8426H28.4627C26.2593 37.8426 24.0706 37.9464 21.9265 38.5177C18.2838 39.4822 14.8562 41.5372 12.3263 44.3268C9.77414 47.1386 7.9268 50.6701 7.32586 54.439C6.92523 56.9689 7.00684 59.5062 7.00684 62.0583C7.00684 63.2305 6.94007 64.4547 7.36295 65.575C7.91196 67.0143 8.78741 68.1494 10.0709 69.0026C11.0725 69.6628 12.3411 69.9819 13.5282 69.9967C14.1069 70.0041 14.6856 69.9967 15.2642 69.9967H56.6922C58.2428 69.9967 59.734 68.6316 59.6598 67.0291C59.5856 65.4117 58.354 64.0541 56.6848 64.0541Z"/>
</mask>
<path d="M46.7136 19.614L43.7373 19.2377L49.6834 20.0382L46.7136 19.614ZM46.8174 18.8276L49.798 19.1682L43.8456 18.4176L46.8174 18.8276ZM45.801 22.5742L43.0216 21.445L48.5733 23.7207L45.801 22.5742ZM46.0978 21.8619L48.8772 22.9911L43.3358 20.6907L46.0978 21.8619ZM44.1837 25.1412L41.8091 23.3078L46.5517 26.983L44.1837 25.1412ZM44.6511 24.5402L47.021 26.3796L42.283 22.6984L44.6511 24.5402ZM41.9876 27.2037L40.1458 24.8356L43.827 29.5736L41.9876 27.2037ZM42.5886 26.7363L44.4304 29.1043L40.7662 24.3532L42.5886 26.7363ZM39.3094 28.6504L38.1382 25.8884L40.4385 31.4298L39.3094 28.6504ZM40.0216 28.3536L41.1681 31.1259L38.8925 25.5742L40.0216 28.3536ZM36.275 29.37L35.8507 26.4002L36.6849 32.3419L36.275 29.37ZM37.0614 29.2661L37.4523 32.2406L36.7208 26.2855L37.0614 29.2661ZM33.159 29.2661L33.5499 26.2917L32.7347 32.236L33.159 29.2661ZM33.9454 29.37L33.6048 32.3506L34.3553 26.3982L33.9454 29.37ZM30.1988 28.3536L31.3279 25.5742L29.0522 31.1259L30.1988 28.3536ZM30.911 28.6504L29.7819 31.4298L32.0822 25.8884L30.911 28.6504ZM27.6318 26.7363L29.4651 24.3616L25.79 29.1043L27.6318 26.7363ZM28.2327 27.2037L26.3934 29.5736L30.0745 24.8356L28.2327 27.2037ZM25.5693 24.5402L27.9373 22.6984L23.1993 26.3796L25.5693 24.5402ZM26.0367 25.1412L23.6686 26.983L28.4198 23.3188L26.0367 25.1412ZM24.1226 21.8619L26.8845 20.6907L21.3432 22.9911L24.1226 21.8619ZM24.4193 22.5742L21.6471 23.7207L27.1987 21.445L24.4193 22.5742ZM23.4029 18.8276L26.3728 18.4033L20.4311 19.2375L23.4029 18.8276ZM23.5068 19.614L20.5324 20.0049L26.4874 19.2733L23.5068 19.614ZM23.5068 15.7116L26.4812 16.1025L20.5369 15.2873L23.5068 15.7116ZM23.4029 16.498L20.4223 16.1573L26.3748 16.9079L23.4029 16.498ZM24.4193 12.7514L27.1987 13.8805L21.6471 11.6048L24.4193 12.7514ZM24.1226 13.4636L21.3432 12.3345L26.8845 14.6348L24.1226 13.4636ZM26.0367 10.1844L28.4113 12.0177L23.6686 8.34254L26.0367 10.1844ZM25.5693 10.7853L23.1993 8.94593L27.9373 12.6271L25.5693 10.7853ZM28.2327 8.12187L30.0746 10.4899L26.3934 5.75191L28.2327 8.12187ZM27.6318 8.58927L25.79 6.22122L29.4541 10.9723L27.6318 8.58927ZM30.911 6.67516L32.0822 9.43709L29.7819 3.89576L30.911 6.67516ZM30.1988 6.97192L29.0522 4.19966L31.3279 9.75132L30.1988 6.97192ZM33.9454 5.95551L34.3697 8.92536L33.5355 2.98364L33.9454 5.95551ZM33.159 6.05937L32.7681 3.08495L33.4996 9.03997L33.159 6.05937ZM37.0614 6.05937L36.6705 9.03379L37.4857 3.08953L37.0614 6.05937ZM36.275 5.95551L36.6156 2.97491L35.8651 8.92737L36.275 5.95551ZM40.0216 6.97192L38.8925 9.75132L41.1681 4.19966L40.0216 6.97192ZM39.3094 6.67516L40.4385 3.89576L38.1382 9.43709L39.3094 6.67516ZM42.5886 8.58927L40.7552 10.9639L44.4304 6.22122L42.5886 8.58927ZM41.9876 8.12187L43.827 5.75191L40.1458 10.4899L41.9876 8.12187ZM44.6511 10.7853L42.283 12.6271L47.021 8.94593L44.6511 10.7853ZM44.1837 10.1844L46.5517 8.34254L41.8006 12.0067L44.1837 10.1844ZM46.0978 13.4636L43.3358 14.6348L48.8772 12.3345L46.0978 13.4636ZM45.801 12.7514L48.5733 11.6048L43.0216 13.8805L45.801 12.7514ZM46.8174 16.498L43.8476 16.9222L49.7893 16.0881L46.8174 16.498ZM46.7136 15.7116L49.6899 15.3352L43.733 16.0522L46.7136 15.7116ZM49.8073 20.6304L49.9454 23.6272L49.946 23.6272L49.8073 20.6304ZM52.7749 17.6628L49.775 17.6753L49.775 17.6762L52.7749 17.6628ZM49.5996 7.58028L52.0306 5.82244L52.0298 5.82127L49.5996 7.58028ZM47.7671 5.34715L49.9229 3.26088L49.9225 3.2605L47.7671 5.34715ZM45.5785 3.46271L43.7603 5.84901L43.7638 5.85164L45.5785 3.46271ZM40.949 0.999585L39.9165 3.81632L39.9177 3.81676L40.949 0.999585ZM21.6372 6.25227L23.953 8.15939L23.9556 8.15622L21.6372 6.25227ZM19.916 8.6412L22.4865 10.188L22.4924 10.178L19.916 8.6412ZM18.6547 11.275L21.4334 12.4061L21.4386 12.3931L18.6547 11.275ZM17.4825 16.5351L14.4917 16.3012L14.4916 16.3026L17.4825 16.5351ZM19.9679 26.7808L22.5329 25.2248L22.5315 25.2225L19.9679 26.7808ZM27.5502 33.6285L26.3132 36.3616L26.3154 36.3627L27.5502 33.6285ZM30.3917 34.7043L29.582 37.593L29.5893 37.595L29.5967 37.5971L30.3917 34.7043ZM33.3519 35.2385L32.9988 38.2176L33.0006 38.2178L33.3519 35.2385ZM38.842 34.9417L39.435 37.8825L39.4407 37.8814L38.842 34.9417ZM52.4856 20.7268L49.5207 20.269L49.5202 20.2723L52.4856 20.7268ZM52.7601 17.685L49.7601 17.6707L49.7601 17.6778V17.685H52.7601ZM49.7925 14.7174L49.8896 17.7158L49.9108 17.7151L49.9319 17.7142L49.7925 14.7174ZM13.5653 64.0541L13.5917 61.0542L13.5785 61.0541H13.5653V64.0541ZM13.0163 64.017L13.3884 61.0401L12.592 66.9868L13.0163 64.017ZM13.8027 64.1208L13.462 67.1014L14.2477 61.154L13.8027 64.1208ZM12.9495 63.8834L14.0766 61.1032L11.8204 66.6628L12.9495 63.8834ZM13.6617 64.1802L12.5326 66.9596L14.8351 61.4192L13.6617 64.1802ZM12.8308 63.6905L14.6632 61.3152L10.989 66.0586L12.8308 63.6905ZM13.4317 64.1579L11.5899 66.526L15.3523 61.8533L13.4317 64.1579ZM12.8234 63.5496L15.166 61.6755L10.4553 65.3914L12.8234 63.5496ZM13.2908 64.1505L10.9227 65.9923L15.6661 62.3181L13.2908 64.1505ZM12.8011 63.3196L15.5369 62.0885L10.0217 64.4487L12.8011 63.3196ZM13.0979 64.0318L10.3185 65.1609L15.8781 62.9047L13.0979 64.0318ZM12.8605 63.1786L15.8133 62.6486L9.89062 63.6029L12.8605 63.1786ZM12.9643 63.965L9.99022 64.3583L15.9449 63.6244L12.9643 63.965ZM13.0756 55.6705L16.0498 56.0633L10.1058 55.2463L13.0756 55.6705ZM12.9718 56.4569L9.99115 56.1163L15.9442 56.8629L12.9718 56.4569ZM14.1811 52.0278L16.9605 53.1569L11.4192 50.8565L14.1811 52.0278ZM13.8843 52.74L11.1049 51.6109L16.6417 53.9218L13.8843 52.74ZM16.1026 48.9563L18.4788 50.7876L13.7345 47.1145L16.1026 48.9563ZM15.6352 49.5572L13.2671 47.7154L18 51.4033L15.6352 49.5572ZM18.7215 46.4709L20.5633 48.839L16.8828 44.1004L18.7215 46.4709ZM18.1206 46.9383L16.2788 44.5703L19.9519 49.3145L18.1206 46.9383ZM21.9043 44.72L23.086 47.4775L20.7752 41.9406L21.9043 44.72ZM21.1921 45.0168L20.0331 42.2497L22.3212 47.7962L21.1921 45.0168ZM25.6212 43.8075L26.0455 46.7773L25.2172 40.8348L25.6212 43.8075ZM24.8348 43.9113L24.4528 40.9358L25.1754 46.8919L24.8348 43.9113ZM45.3707 43.9113L44.992 46.8873L45.795 40.9415L45.3707 43.9113ZM44.5843 43.8075L44.9249 40.8269L44.1783 46.7799L44.5843 43.8075ZM49.0135 45.0168L47.8843 47.7962L50.1847 42.2549L49.0135 45.0168ZM48.3012 44.72L49.4304 41.9406L47.1195 47.4775L48.3012 44.72ZM52.085 46.9383L50.2536 49.3145L53.9268 44.5703L52.085 46.9383ZM51.484 46.4709L53.3258 44.1029L49.638 48.8357L51.484 46.4709ZM54.5703 49.5572L52.2023 51.3991L56.9408 47.7186L54.5703 49.5572ZM54.1029 48.9563L56.471 47.1145L51.7268 50.7876L54.1029 48.9563ZM56.3212 52.74L53.5638 53.9218L59.1006 51.6109L56.3212 52.74ZM56.0245 52.0278L58.7916 50.8688L53.2451 53.1569L56.0245 52.0278ZM57.2338 56.4569L54.2639 56.8812L60.2064 56.0529L57.2338 56.4569ZM57.1299 55.6705L60.1064 55.296L54.1493 56.0112L57.1299 55.6705ZM57.2412 63.965L54.2644 63.5929L60.211 64.3893L57.2412 63.965ZM57.3451 63.1786L60.3257 63.5192L54.3783 62.7336L57.3451 63.1786ZM57.1077 64.0318L54.3274 62.9047L59.8871 65.1609L57.1077 64.0318ZM57.4044 63.3196L60.1838 64.4487L54.6434 62.1461L57.4044 63.3196ZM56.9148 64.1505L54.5394 62.3181L59.2828 65.9923L56.9148 64.1505ZM57.3822 63.5496L59.7502 65.3914L55.0775 61.629L57.3822 63.5496ZM56.7738 64.1579L54.8997 61.8153L58.6156 66.526L56.7738 64.1579ZM57.3747 63.6905L59.2166 66.0586L55.5423 61.3152L57.3747 63.6905ZM56.5438 64.1802L55.3127 61.4444L57.6729 66.9596L56.5438 64.1802ZM57.256 63.8834L58.3852 66.6628L56.1289 61.1032L57.256 63.8834ZM56.4028 64.1208L55.8728 61.168L56.8271 67.0907L56.4028 64.1208ZM57.1893 64.017L57.5946 66.9894L56.8486 61.0364L57.1893 64.017ZM54.5852 64.9221L52.4783 62.7864L52.4711 62.7935L52.4639 62.8008L54.5852 64.9221ZM53.7171 67.0217L56.7139 66.8816L56.7134 66.8719L53.7171 67.0217ZM56.6848 69.9893L56.7249 72.989L56.731 72.9889L56.6848 69.9893ZM62.9539 65.293L65.8229 66.1699L65.8241 66.1657L62.9539 65.293ZM62.85 54.1867L65.8056 53.6727L65.8055 53.6717L62.85 54.1867ZM48.0045 38.4435L47.2865 41.3563L47.2866 41.3563L48.0045 38.4435ZM21.9265 38.5177L22.6944 41.4178L22.6989 41.4166L21.9265 38.5177ZM12.3263 44.3268L14.5477 46.3431L14.5485 46.3422L12.3263 44.3268ZM7.32586 54.439L4.36328 53.9666L4.36278 53.9697L7.32586 54.439ZM7.36295 65.575L4.55625 66.6344L4.55995 66.6441L7.36295 65.575ZM10.0709 69.0026L8.41013 71.5009L8.41967 71.5072L10.0709 69.0026ZM13.5282 69.9967L13.5666 66.9969L13.5657 66.9969L13.5282 69.9967ZM59.6598 67.0291L56.663 67.1666L56.663 67.1678L59.6598 67.0291ZM43.8397 17.6628C43.8397 18.1798 43.8044 18.7067 43.7373 19.2377L49.6899 19.9903C49.786 19.2303 49.8397 18.4514 49.8397 17.6628H43.8397ZM49.6834 20.0382C49.721 19.7749 49.7632 19.4725 49.798 19.1682L43.8368 18.4869C43.8123 18.7019 43.7803 18.9337 43.7437 19.1897L49.6834 20.0382ZM43.8456 18.4176C43.7027 19.4535 43.429 20.4599 43.0288 21.4276L48.5733 23.7207C49.1672 22.2847 49.5761 20.7835 49.7893 19.2375L43.8456 18.4176ZM48.5804 23.7033C48.6199 23.6062 48.6621 23.506 48.7135 23.3842C48.7622 23.2686 48.8202 23.1314 48.8772 22.9911L43.3184 20.7328C43.279 20.8299 43.2367 20.9301 43.1853 21.052C43.1366 21.1675 43.0786 21.3047 43.0216 21.445L48.5804 23.7033ZM43.3358 20.6907C42.9368 21.6318 42.4277 22.5065 41.8091 23.3078L46.5583 26.9745C47.4977 25.7578 48.2646 24.4365 48.8597 23.0331L43.3358 20.6907ZM46.5517 26.983L47.0191 26.382L42.283 22.6984L41.8156 23.2993L46.5517 26.983ZM42.2811 22.7008C41.6635 23.4966 40.944 24.2161 40.1483 24.8337L43.827 29.5736C45.0195 28.6481 46.0955 27.5721 47.021 26.3796L42.2811 22.7008ZM43.8295 29.5717L44.4304 29.1043L40.7468 24.3682L40.1458 24.8356L43.8295 29.5717ZM40.7662 24.3532C39.9505 24.977 39.0703 25.4932 38.1382 25.8884L40.4806 31.4123C41.8929 30.8134 43.2087 30.0387 44.4109 29.1193L40.7662 24.3532ZM40.4385 31.4298C40.5788 31.3727 40.716 31.3148 40.8316 31.2661C40.9534 31.2147 41.0537 31.1724 41.1507 31.133L38.8925 25.5742C38.7521 25.6312 38.6149 25.6891 38.4994 25.7379C38.3775 25.7893 38.2773 25.8315 38.1802 25.871L40.4385 31.4298ZM38.875 25.5813C37.9073 25.9816 36.9009 26.2553 35.8651 26.3982L36.6849 32.3419C38.2309 32.1286 39.7321 31.7198 41.1681 31.1259L38.875 25.5813ZM36.6992 32.3399C36.9553 32.3033 37.1871 32.2713 37.402 32.2467L36.7208 26.2855C36.4164 26.3203 36.1139 26.3626 35.8507 26.4002L36.6992 32.3399ZM36.6705 26.2917C35.6316 26.4283 34.5887 26.4283 33.5499 26.2917L32.7681 32.2406C34.3259 32.4453 35.8945 32.4453 37.4523 32.2406L36.6705 26.2917ZM32.7347 32.236C32.9979 32.2736 33.3004 32.3158 33.6048 32.3506L34.286 26.3894C34.0711 26.3648 33.8393 26.3329 33.5832 26.2963L32.7347 32.236ZM34.3553 26.3982C33.3195 26.2553 32.3131 25.9816 31.3453 25.5813L29.0522 31.1259C30.4883 31.7198 31.9895 32.1286 33.5355 32.3419L34.3553 26.3982ZM29.0696 31.133C29.1667 31.1724 29.2669 31.2147 29.3888 31.2661C29.5043 31.3148 29.6415 31.3727 29.7819 31.4298L32.0401 25.871C31.9431 25.8315 31.8428 25.7893 31.721 25.7379C31.6054 25.6891 31.4683 25.6312 31.3279 25.5742L29.0696 31.133ZM32.0822 25.8884C31.1411 25.4894 30.2664 24.9803 29.4651 24.3616L25.7984 29.1109C27.0151 30.0502 28.3365 30.8172 29.7398 31.4123L32.0822 25.8884ZM25.79 29.1043L26.3909 29.5717L30.0745 24.8356L29.4736 24.3682L25.79 29.1043ZM30.0721 24.8337C29.2763 24.2161 28.5569 23.4966 27.9392 22.7008L23.1993 26.3796C24.1249 27.5721 25.2008 28.6481 26.3934 29.5736L30.0721 24.8337ZM23.2012 26.382L23.6686 26.983L28.4047 23.2993L27.9373 22.6984L23.2012 26.382ZM28.4198 23.3188C27.796 22.5031 27.2798 21.6229 26.8845 20.6907L21.3606 23.0331C21.9595 24.4454 22.7343 25.7613 23.6536 26.9635L28.4198 23.3188ZM21.3432 22.9911C21.4002 23.1314 21.4581 23.2686 21.5069 23.3842C21.5583 23.506 21.6005 23.6062 21.6399 23.7033L27.1987 21.445C27.1417 21.3047 27.0838 21.1675 27.035 21.052C26.9836 20.9301 26.9414 20.8299 26.902 20.7328L21.3432 22.9911ZM27.1916 21.4276C26.7914 20.4599 26.5177 19.4535 26.3748 18.4176L20.4311 19.2375C20.6443 20.7835 21.0532 22.2847 21.6471 23.7207L27.1916 21.4276ZM20.4331 19.2518C20.4697 19.5079 20.5016 19.7396 20.5262 19.9546L26.4874 19.2733C26.4526 18.969 26.4104 18.6665 26.3728 18.4033L20.4331 19.2518ZM26.4812 19.223C26.3447 18.1842 26.3447 17.1413 26.4812 16.1025L20.5324 15.3206C20.3276 16.8785 20.3276 18.4471 20.5324 20.0049L26.4812 19.223ZM20.5369 15.2873C20.4993 15.5506 20.4571 15.853 20.4223 16.1573L26.3835 16.8386C26.4081 16.6236 26.4401 16.3919 26.4766 16.1358L20.5369 15.2873ZM26.3748 16.9079C26.5177 15.872 26.7914 14.8656 27.1916 13.8979L21.6471 11.6048C21.0532 13.0408 20.6443 14.5421 20.4311 16.0881L26.3748 16.9079ZM21.6399 11.6222C21.6005 11.7193 21.5583 11.8195 21.5069 11.9414C21.4581 12.0569 21.4002 12.1941 21.3432 12.3345L26.902 14.5927C26.9414 14.4957 26.9836 14.3954 27.035 14.2736C27.0838 14.158 27.1417 14.0208 27.1987 13.8805L21.6399 11.6222ZM26.8845 14.6348C27.2836 13.6937 27.7927 12.819 28.4113 12.0177L23.6621 8.35102C22.7227 9.5677 21.9557 10.889 21.3606 12.2924L26.8845 14.6348ZM23.6686 8.34254L23.2012 8.94348L27.9373 12.6271L28.4047 12.0262L23.6686 8.34254ZM27.9392 12.6247C28.5569 11.8289 29.2763 11.1094 30.0721 10.4918L26.3934 5.75191C25.2008 6.67745 24.1249 7.75341 23.1993 8.94593L27.9392 12.6247ZM26.3909 5.75382L25.79 6.22122L29.4736 10.9573L30.0746 10.4899L26.3909 5.75382ZM29.4541 10.9723C30.2699 10.3485 31.1501 9.83235 32.0822 9.43709L29.7398 3.91322C28.3275 4.51211 27.0117 5.28683 25.8094 6.2062L29.4541 10.9723ZM29.7819 3.89576C29.6415 3.95277 29.5043 4.01069 29.3888 4.05944C29.2669 4.11085 29.1667 4.15309 29.0696 4.19252L31.3279 9.75132C31.4683 9.6943 31.6054 9.63638 31.721 9.58763C31.8428 9.53622 31.9431 9.49398 32.0401 9.45455L29.7819 3.89576ZM31.3453 9.74418C32.3131 9.34394 33.3195 9.07024 34.3553 8.92737L33.5355 2.98364C31.9895 3.19688 30.4883 3.60574 29.0522 4.19966L31.3453 9.74418ZM33.5211 2.98566C33.265 3.02224 33.0333 3.05421 32.8183 3.07878L33.4996 9.03997C33.804 9.00519 34.1064 8.96296 34.3697 8.92536L33.5211 2.98566ZM33.5499 9.03379C34.5887 8.89726 35.6316 8.89726 36.6705 9.03379L37.4523 3.08495C35.8945 2.88021 34.3259 2.88021 32.7681 3.08495L33.5499 9.03379ZM37.4857 3.08953C37.2224 3.05192 36.92 3.00969 36.6156 2.97491L35.9343 8.93611C36.1493 8.96067 36.381 8.99264 36.6371 9.02922L37.4857 3.08953ZM35.8651 8.92737C36.9009 9.07024 37.9073 9.34394 38.875 9.74418L41.1681 4.19966C39.7321 3.60574 38.2309 3.19688 36.6849 2.98364L35.8651 8.92737ZM41.1507 4.19252C41.0537 4.15309 40.9534 4.11085 40.8316 4.05944C40.716 4.01069 40.5788 3.95277 40.4385 3.89576L38.1802 9.45455C38.2773 9.49398 38.3775 9.53622 38.4994 9.58763C38.6149 9.63638 38.7521 9.6943 38.8925 9.75132L41.1507 4.19252ZM38.1382 9.43709C39.0792 9.83615 39.9539 10.3452 40.7552 10.9639L44.4219 6.21465C43.2052 5.2753 41.8839 4.50831 40.4806 3.91322L38.1382 9.43709ZM44.4304 6.22122L43.8295 5.75382L40.1458 10.4899L40.7468 10.9573L44.4304 6.22122ZM40.1483 10.4918C40.944 11.1094 41.6635 11.8289 42.2811 12.6247L47.021 8.94593C46.0955 7.75341 45.0195 6.67745 43.827 5.75191L40.1483 10.4918ZM47.0191 8.94349L46.5517 8.34254L41.8156 12.0262L42.283 12.6271L47.0191 8.94349ZM41.8006 12.0067C42.4244 12.8224 42.9406 13.7027 43.3358 14.6348L48.8597 12.2924C48.2608 10.8801 47.4861 9.56426 46.5667 8.36201L41.8006 12.0067ZM48.8772 12.3345C48.8202 12.1941 48.7622 12.0569 48.7135 11.9414C48.6621 11.8195 48.6199 11.7193 48.5804 11.6222L43.0216 13.8805C43.0786 14.0208 43.1366 14.158 43.1853 14.2736C43.2367 14.3954 43.279 14.4957 43.3184 14.5927L48.8772 12.3345ZM43.0288 13.8979C43.429 14.8656 43.7027 15.872 43.8456 16.9079L49.7893 16.0881C49.5761 14.5421 49.1672 13.0408 48.5733 11.6048L43.0288 13.8979ZM49.7873 16.0737C49.7507 15.8177 49.7187 15.5859 49.6942 15.3709L43.733 16.0522C43.7678 16.3565 43.81 16.6589 43.8476 16.9222L49.7873 16.0737ZM43.7373 16.0879C43.8017 16.5973 43.8335 17.1332 43.8399 17.6968L49.8395 17.6287C49.8311 16.8865 49.7887 16.1167 49.6899 15.3352L43.7373 16.0879ZM43.8397 17.6771C43.8541 20.6888 46.3973 23.7907 49.9454 23.6272L49.6692 17.6336C49.7557 17.6296 49.8245 17.6487 49.8621 17.665C49.8946 17.6792 49.8948 17.6866 49.8777 17.6689C49.8603 17.651 49.8455 17.6279 49.8378 17.6098C49.8303 17.5924 49.8394 17.6039 49.8397 17.6484L43.8397 17.6771ZM49.946 23.6272C52.9181 23.4896 55.7905 21.1462 55.7749 17.6494L49.775 17.6762C49.775 17.6763 49.7749 17.6743 49.7753 17.6705C49.7757 17.6667 49.7764 17.6618 49.7776 17.6559C49.7802 17.6436 49.7842 17.6307 49.7895 17.6186C49.8004 17.5936 49.8109 17.5839 49.8088 17.5859C49.8058 17.5888 49.7921 17.6006 49.7651 17.6122C49.7389 17.6234 49.706 17.6319 49.6686 17.6336L49.946 23.6272ZM55.7749 17.6502C55.7577 13.5345 54.5264 9.27408 52.0306 5.82244L47.1685 9.33812C48.8571 11.6733 49.7625 14.6836 49.775 17.6753L55.7749 17.6502ZM52.0298 5.82127C51.4237 4.9839 50.7289 4.09382 49.9229 3.26088L45.6113 7.43341C46.1406 7.98041 46.6478 8.61865 47.1694 9.33928L52.0298 5.82127ZM49.9225 3.2605C49.0886 2.39915 48.2044 1.69005 47.3931 1.07378L43.7638 5.85164C44.4956 6.40757 45.0952 6.90037 45.6116 7.43379L49.9225 3.2605ZM47.3966 1.07641C45.701 -0.215472 43.8525 -1.13222 41.9803 -1.81759L39.9177 3.81676C41.3692 4.34811 42.6515 5.0042 43.7603 5.849L47.3966 1.07641ZM41.9815 -1.81714C34.0878 -4.71063 24.6633 -2.15961 19.3188 4.34832L23.9556 8.15622C27.6771 3.62461 34.4114 1.79839 39.9165 3.81631L41.9815 -1.81714ZM19.3214 4.34515C18.6489 5.16182 17.9517 6.07806 17.3395 7.10437L22.4924 10.178C22.8892 9.5128 23.3791 8.85621 23.953 8.15939L19.3214 4.34515ZM17.3455 7.09437C16.718 8.13716 16.2549 9.20078 15.8709 10.1569L21.4386 12.3931C21.7817 11.5389 22.105 10.8219 22.4864 10.188L17.3455 7.09437ZM15.8761 10.1439C15.049 12.1757 14.6502 14.2741 14.4917 16.3012L20.4734 16.7689C20.5968 15.1904 20.8953 13.7277 21.4333 12.4061L15.8761 10.1439ZM14.4916 16.3026C14.1666 20.4835 15.2497 24.7943 17.4043 28.339L22.5315 25.2225C21.0063 22.7133 20.2495 19.6496 20.4735 16.7676L14.4916 16.3026ZM17.4029 28.3367C19.4588 31.7258 22.5789 34.6715 26.3132 36.3616L28.7872 30.8955C26.2598 29.7516 24.0233 27.6819 22.5329 25.2248L17.4029 28.3367ZM26.3154 36.3627C27.2908 36.8031 28.3906 37.259 29.582 37.593L31.2014 31.8156C30.4341 31.6006 29.6495 31.2849 28.7849 30.8944L26.3154 36.3627ZM29.5967 37.5971C30.7857 37.9238 31.9476 38.093 32.9988 38.2176L33.705 32.2593C32.753 32.1465 31.9414 32.019 31.1866 31.8116L29.5967 37.5971ZM33.0006 38.2178C35.2147 38.4789 37.4043 38.292 39.435 37.8825L38.249 32.0009C36.674 32.3185 35.1392 32.4284 33.7031 32.2591L33.0006 38.2178ZM39.4407 37.8814C47.4921 36.2414 54.1953 29.3736 55.451 21.1813L49.5202 20.2723C48.654 25.924 43.8874 30.8524 38.2432 32.0021L39.4407 37.8814ZM55.4504 21.1846C55.6157 20.1146 55.7601 18.9324 55.7601 17.685H49.7601C49.7601 18.4853 49.6671 19.3211 49.5207 20.269L55.4504 21.1846ZM55.7601 17.6994C55.7747 14.6291 53.1547 11.5578 49.6531 11.7206L49.9319 17.7142C49.8375 17.7185 49.7678 17.6977 49.7348 17.6833C49.7065 17.671 49.71 17.6665 49.7293 17.6863C49.7487 17.7062 49.7621 17.7284 49.7675 17.741C49.7724 17.7526 49.7598 17.73 49.7601 17.6707L55.7601 17.6994ZM49.6953 11.719C46.6503 11.8177 43.8397 14.2117 43.8397 17.6628H49.8397C49.8397 17.6589 49.84 17.6623 49.8381 17.6713C49.8363 17.6801 49.8331 17.6906 49.8285 17.7014C49.8187 17.7238 49.8079 17.7359 49.8047 17.739C49.8022 17.7414 49.8073 17.7357 49.8228 17.7292C49.8375 17.723 49.8596 17.7168 49.8896 17.7158L49.6953 11.719ZM56.6848 61.0541H18.6176V67.0541H56.6848V61.0541ZM18.6176 61.0541C16.8961 61.0541 15.2604 61.0689 13.5917 61.0542L13.5388 67.0539C15.2384 67.0689 16.971 67.0541 18.6176 67.0541V61.0541ZM13.5653 61.0541C13.5356 61.0541 13.4787 61.0514 13.3884 61.0401L12.6442 66.9938C12.9099 67.027 13.224 67.0541 13.5653 67.0541V61.0541ZM12.592 66.9868C12.8553 67.0244 13.1577 67.0666 13.462 67.1014L14.1433 61.1402C13.9283 61.1157 13.6966 61.0837 13.4405 61.0471L12.592 66.9868ZM14.2477 61.154C14.2117 61.1486 14.1586 61.1364 14.0766 61.1032L11.8224 66.6636C12.2894 66.853 12.8001 67.004 13.3577 67.0876L14.2477 61.154ZM11.8204 66.6628C11.9174 66.7022 12.0177 66.7445 12.1395 66.7959C12.2551 66.8446 12.3922 66.9026 12.5326 66.9596L14.7909 61.4008C14.6938 61.3613 14.5936 61.3191 14.4717 61.2677C14.3562 61.219 14.219 61.161 14.0786 61.104L11.8204 66.6628ZM14.8351 61.4192C14.7882 61.3992 14.7335 61.3694 14.6632 61.3152L10.9984 66.0659C11.4474 66.4122 11.9417 66.7089 12.4883 66.9412L14.8351 61.4192ZM10.989 66.0586L11.5899 66.526L15.2736 61.7899L14.6726 61.3225L10.989 66.0586ZM15.3523 61.8533C15.2363 61.7566 15.1842 61.6983 15.166 61.6755L10.4808 65.4236C10.8186 65.846 11.1821 66.1883 11.5112 66.4626L15.3523 61.8533ZM10.4553 65.3914L10.9227 65.9923L15.6588 62.3087L15.1914 61.7077L10.4553 65.3914ZM15.6661 62.3181C15.6359 62.2789 15.5941 62.2156 15.5369 62.0885L10.0653 64.5507C10.2752 65.0171 10.545 65.5028 10.9154 65.9829L15.6661 62.3181ZM10.0217 64.4487C10.0787 64.5891 10.1366 64.7262 10.1854 64.8418C10.2368 64.9636 10.279 65.0639 10.3185 65.1609L15.8773 62.9027C15.8203 62.7623 15.7623 62.6251 15.7136 62.5096C15.6622 62.3877 15.6199 62.2875 15.5805 62.1904L10.0217 64.4487ZM15.8781 62.9047C15.8661 62.875 15.84 62.7977 15.8133 62.6486L9.90765 63.7086C9.98476 64.1382 10.1071 64.6396 10.3177 65.1589L15.8781 62.9047ZM9.89062 63.6029C9.9272 63.8589 9.95916 64.0907 9.98373 64.3057L15.9449 63.6244C15.9101 63.32 15.8679 63.0176 15.8303 62.7543L9.89062 63.6029ZM15.9384 63.5718C15.8537 62.9307 15.9272 62.4816 15.9272 61.2126H9.92724C9.92724 61.7538 9.83758 63.2039 9.99022 64.3583L15.9384 63.5718ZM15.9272 61.2126V58.0372H9.92724V61.2126H15.9272ZM15.9272 58.0372C15.9272 57.3558 15.9654 56.702 16.0498 56.0633L10.1014 55.2777C9.97807 56.2118 9.92724 57.1309 9.92724 58.0372H15.9272ZM10.1058 55.2463C10.0682 55.5095 10.0259 55.812 9.99115 56.1163L15.9523 56.7976C15.9769 56.5826 16.0089 56.3509 16.0455 56.0948L10.1058 55.2463ZM15.9442 56.8629C16.1175 55.5936 16.4503 54.3607 16.943 53.1991L11.4192 50.8565C10.7099 52.5289 10.2414 54.2785 9.99935 56.051L15.9442 56.8629ZM11.4017 50.8986C11.3622 50.9957 11.32 51.0959 11.2686 51.2178C11.2198 51.3334 11.1619 51.4705 11.1049 51.6109L16.6637 53.8691C16.7031 53.7721 16.7454 53.6718 16.7968 53.55C16.8455 53.4344 16.9034 53.2973 16.9605 53.1569L11.4017 50.8986ZM16.6417 53.9218C17.1223 52.8003 17.7368 51.7503 18.4788 50.7876L13.7264 47.125C12.673 48.4918 11.8036 49.9791 11.1269 51.5583L16.6417 53.9218ZM13.7345 47.1145L13.2671 47.7154L18.0032 51.3991L18.4706 50.7981L13.7345 47.1145ZM18 51.4033C18.7509 50.4414 19.607 49.5808 20.5602 48.8414L16.8828 44.1004C15.5213 45.1565 14.3149 46.3732 13.2704 47.7112L18 51.4033ZM16.8797 44.1029L16.2788 44.5703L19.9624 49.3064L20.5633 48.839L16.8797 44.1029ZM19.9519 49.3145C20.9146 48.5725 21.9646 47.9581 23.086 47.4775L20.7225 41.9626C19.1434 42.6393 17.6561 43.5087 16.2892 44.5621L19.9519 49.3145ZM20.7752 41.9406C20.6348 41.9976 20.4976 42.0556 20.3821 42.1043C20.2602 42.1557 20.16 42.1979 20.0629 42.2374L22.3212 47.7962C22.4615 47.7392 22.5987 47.6812 22.7143 47.6325C22.8361 47.5811 22.9364 47.5388 23.0334 47.4994L20.7752 41.9406ZM22.351 47.7839C23.5307 47.2898 24.761 46.952 26.0253 46.7801L25.2172 40.8348C23.4248 41.0784 21.6875 41.5567 20.0331 42.2497L22.351 47.7839ZM25.197 40.8376C24.9409 40.8742 24.7091 40.9062 24.4942 40.9307L25.1754 46.8919C25.4798 46.8572 25.7822 46.8149 26.0455 46.7773L25.197 40.8376ZM25.2168 46.8869C26.1005 46.7735 27.0125 46.763 28.1289 46.763V40.763C27.0343 40.763 25.7651 40.7673 24.4528 40.9358L25.2168 46.8869ZM28.1289 46.763H41.7057V40.763H28.1289V46.763ZM41.7057 46.763C42.9787 46.763 43.9931 46.7602 44.992 46.8873L45.7495 40.9353C44.3 40.7509 42.8811 40.763 41.7057 40.763V46.763ZM45.795 40.9415C45.5317 40.9039 45.2293 40.8617 44.9249 40.8269L44.2437 46.7881C44.4586 46.8126 44.6904 46.8446 44.9465 46.8812L45.795 40.9415ZM44.1783 46.7799C45.4477 46.9533 46.6805 47.286 47.8422 47.7787L50.1847 42.2549C48.5124 41.5456 46.7627 41.0772 44.9903 40.8351L44.1783 46.7799ZM50.1426 42.2374C50.0455 42.1979 49.9453 42.1557 49.8235 42.1043C49.7079 42.0556 49.5707 41.9976 49.4304 41.9406L47.1721 47.4994C47.2692 47.5388 47.3694 47.5811 47.4913 47.6325C47.6068 47.6812 47.744 47.7392 47.8843 47.7962L50.1426 42.2374ZM47.1195 47.4775C48.2409 47.9581 49.2909 48.5725 50.2536 49.3145L53.9163 44.5621C52.5494 43.5087 51.0621 42.6393 49.483 41.9626L47.1195 47.4775ZM53.9268 44.5703L53.3258 44.1029L49.6422 48.839L50.2431 49.3064L53.9268 44.5703ZM49.638 48.8357C50.5999 49.5866 51.4605 50.4427 52.1998 51.3959L56.9408 47.7186C55.8848 46.357 54.6681 45.1507 53.3301 44.1061L49.638 48.8357ZM56.9384 47.7154L56.471 47.1145L51.7349 50.7981L52.2023 51.3991L56.9384 47.7154ZM51.7268 50.7876C52.4687 51.7503 53.0832 52.8003 53.5638 53.9218L59.0787 51.5583C58.4019 49.9791 57.5326 48.4918 56.4791 47.125L51.7268 50.7876ZM59.1006 51.6109C59.0436 51.4705 58.9857 51.3334 58.9369 51.2178C58.8855 51.0959 58.8433 50.9957 58.8039 50.8986L53.2451 53.1569C53.3021 53.2973 53.36 53.4344 53.4088 53.55C53.4602 53.6718 53.5024 53.7721 53.5418 53.8691L59.1006 51.6109ZM53.2574 53.1868C53.7515 54.3664 54.0893 55.5967 54.2611 56.861L60.2064 56.0529C59.9628 54.2606 59.4845 52.5232 58.7916 50.8688L53.2574 53.1868ZM60.2036 56.0327C60.167 55.7766 60.1351 55.5449 60.1105 55.3299L54.1493 56.0112C54.1841 56.3155 54.2263 56.618 54.2639 56.8812L60.2036 56.0327ZM54.1534 56.0451C54.2679 56.9552 54.2783 57.8929 54.2783 59.0314H60.2783C60.2783 57.9144 60.2738 56.6265 60.1064 55.296L54.1534 56.0451ZM54.2783 59.0314V62.7038H60.2783V59.0314H54.2783ZM54.2783 62.7038C54.2783 63.2756 54.2861 63.419 54.2644 63.5929L60.218 64.3371C60.3001 63.6801 60.2783 62.9778 60.2783 62.7038H54.2783ZM60.211 64.3893C60.2486 64.126 60.2909 63.8236 60.3257 63.5192L54.3645 62.838C54.3399 63.0529 54.3079 63.2847 54.2713 63.5408L60.211 64.3893ZM54.3783 62.7336C54.3729 62.7695 54.3607 62.8227 54.3274 62.9047L59.8879 65.1589C60.0772 64.6919 60.2282 64.1812 60.3119 63.6236L54.3783 62.7336ZM59.8871 65.1609C59.9265 65.0639 59.9687 64.9636 60.0201 64.8418C60.0689 64.7262 60.1268 64.5891 60.1838 64.4487L54.625 62.1904C54.5856 62.2875 54.5433 62.3877 54.4919 62.5096C54.4432 62.6251 54.3853 62.7623 54.3283 62.9027L59.8871 65.1609ZM54.6434 62.1461C54.6235 62.1931 54.5937 62.2478 54.5394 62.3181L59.2901 65.9829C59.6365 65.5339 59.9331 65.0396 60.1654 64.493L54.6434 62.1461ZM59.2828 65.9923L59.7502 65.3914L55.0141 61.7077L54.5467 62.3087L59.2828 65.9923ZM55.0775 61.629C54.9808 61.745 54.9225 61.797 54.8997 61.8153L58.6479 66.5005C59.0702 66.1627 59.4125 65.7993 59.6868 65.4701L55.0775 61.629ZM58.6156 66.526L59.2166 66.0586L55.5329 61.3225L54.932 61.7899L58.6156 66.526ZM55.5423 61.3152C55.5031 61.3454 55.4398 61.3872 55.3127 61.4444L57.7749 66.9159C58.2413 66.706 58.727 66.4362 59.2071 66.0659L55.5423 61.3152ZM57.6729 66.9596C57.8133 66.9026 57.9505 66.8446 58.066 66.7959C58.1879 66.7445 58.2881 66.7022 58.3852 66.6628L56.1269 61.104C55.9865 61.161 55.8494 61.219 55.7338 61.2677C55.612 61.3191 55.5117 61.3613 55.4147 61.4008L57.6729 66.9596ZM56.1289 61.1032C56.0992 61.1152 56.0219 61.1412 55.8728 61.168L56.9328 67.0736C57.3624 66.9965 57.8638 66.8742 58.3831 66.6636L56.1289 61.1032ZM56.8271 67.0907C57.0832 67.0541 57.3149 67.0221 57.5299 66.9976L56.8486 61.0364C56.5443 61.0711 56.2419 61.1134 55.9786 61.151L56.8271 67.0907ZM56.7839 61.0445C56.794 61.0431 56.7845 61.0448 56.7424 61.0476C56.6972 61.0505 56.6456 61.0529 56.5545 61.0569L56.8151 67.0512C56.9588 67.045 57.2704 67.0337 57.5946 66.9894L56.7839 61.0445ZM56.6556 61.0542C55.1301 61.069 53.5936 61.6862 52.4783 62.7864L56.692 67.0578C56.6796 67.07 56.6735 67.0736 56.6758 67.0721C56.6782 67.0706 56.685 67.0666 56.6955 67.0622C56.706 67.0579 56.7154 67.0553 56.7216 67.054C56.7279 67.0527 56.7258 67.0538 56.7139 67.0539L56.6556 61.0542ZM52.4639 62.8008C51.4713 63.7933 50.6337 65.4285 50.7209 67.1715L56.7134 66.8719C56.7186 66.9753 56.7072 67.0397 56.7029 67.0604C56.6984 67.0824 56.6961 67.0828 56.7031 67.0666C56.7098 67.0508 56.7188 67.0345 56.7267 67.0226C56.7353 67.0097 56.7318 67.0181 56.7065 67.0434L52.4639 62.8008ZM50.7204 67.1617C50.8568 70.0808 53.1746 73.0366 56.7249 72.989L56.6446 66.9896C56.6512 66.9895 56.6645 66.9901 56.6823 66.9937C56.6999 66.9973 56.7169 67.0028 56.732 67.0094C56.7626 67.0228 56.773 67.035 56.7687 67.0305C56.7635 67.0251 56.7492 67.0076 56.7359 66.9766C56.7229 66.9463 56.7154 66.9133 56.7139 66.8816L50.7204 67.1617ZM56.731 72.9889C60.9038 72.9246 64.5921 70.1968 65.8229 66.1699L60.0849 64.4162C59.6241 65.9239 58.2378 66.965 56.6385 66.9896L56.731 72.9889ZM65.8241 66.1657C66.3244 64.5203 66.2135 62.7226 66.2135 61.8877H60.2135C60.2135 63.3082 60.251 63.8697 60.0836 64.4203L65.8241 66.1657ZM66.2135 61.8877C66.2135 59.4487 66.3069 56.555 65.8056 53.6727L59.8944 54.7007C60.2834 56.9375 60.2135 59.163 60.2135 61.8877H66.2135ZM65.8055 53.6717C65.0421 49.2911 62.8595 45.2482 59.9244 42.1022L55.5373 46.1953C57.7659 48.584 59.3521 51.5891 59.8945 54.7017L65.8055 53.6717ZM59.9244 42.1022C56.9436 38.9072 52.958 36.5746 48.7224 35.5307L47.2866 41.3563C50.3958 42.1227 53.3545 43.8557 55.5373 46.1953L59.9244 42.1022ZM48.7224 35.5307C46.2479 34.9208 43.826 34.8426 41.6241 34.8426V40.8426C43.7252 40.8426 45.547 40.9276 47.2865 41.3563L48.7224 35.5307ZM41.6241 34.8426H28.4627V40.8426H41.6241V34.8426ZM28.4627 34.8426C26.1905 34.8426 23.6854 34.9444 21.1542 35.6188L22.6989 41.4166C24.4559 40.9484 26.328 40.8426 28.4627 40.8426V34.8426ZM21.1587 35.6176C16.9697 36.7267 13.0327 39.0823 10.1041 42.3114L14.5485 46.3422C16.6797 43.9922 19.5979 42.2376 22.6944 41.4178L21.1587 35.6176ZM10.1049 42.3105C7.21173 45.4981 5.06724 49.5516 4.36328 53.9666L10.2884 54.9113C10.7864 51.7886 12.3366 48.7792 14.5477 46.3431L10.1049 42.3105ZM4.36278 53.9697C3.91511 56.7967 4.00684 59.6478 4.00684 62.0583H10.0068C10.0068 59.3646 9.93535 57.141 10.2889 54.9082L4.36278 53.9697ZM4.00684 62.0583C4.00684 62.9487 3.89049 64.8707 4.55626 66.6344L10.1696 64.5155C9.98965 64.0386 10.0068 63.5124 10.0068 62.0583H4.00684ZM4.55995 66.6441C5.31869 68.6333 6.57699 70.2824 8.41014 71.5009L11.7317 66.5042C10.9978 66.0164 10.5052 65.3952 10.166 64.5058L4.55995 66.6441ZM8.41967 71.5072C9.98921 72.542 11.8455 72.9759 13.4907 72.9965L13.5657 66.9969C12.8367 66.9878 12.1557 66.7837 11.7221 66.4979L8.41967 71.5072ZM13.4897 72.9965C14.0908 73.0042 14.74 72.9967 15.2642 72.9967V66.9967C14.6311 66.9967 14.1229 67.0041 13.5666 66.9969L13.4897 72.9965ZM15.2642 72.9967H56.6922V66.9967H15.2642V72.9967ZM56.6922 72.9967C59.7332 72.9967 62.8198 70.4153 62.6566 66.8903L56.663 67.1678C56.6588 67.0774 56.6788 67.0082 56.6942 66.9728C56.7074 66.9424 56.7134 66.9441 56.6946 66.9623C56.6757 66.9807 56.6531 66.9948 56.6377 67.0014C56.6233 67.0076 56.6403 66.9967 56.6922 66.9967V72.9967ZM62.6567 66.8916C62.5187 63.8849 60.1618 61.0541 56.6848 61.0541V67.0541C56.6893 67.0541 56.6863 67.0544 56.6776 67.0526C56.6691 67.0508 56.659 67.0478 56.6486 67.0433C56.627 67.0339 56.6175 67.0243 56.618 67.0248C56.6194 67.0262 56.6299 67.0379 56.6408 67.0633C56.6515 67.0882 56.6609 67.1228 56.663 67.1666L62.6567 66.8916Z" fill="#FB7D09" mask="url(#path-1-inside-1_714_328)"/>
</svg>
