<svg width="104" height="104" viewBox="0 0 104 104" fill="none" xmlns="http://www.w3.org/2000/svg">
<path d="M96 2H8C4.68629 2 2 4.68629 2 8V66C2 69.3137 4.68629 72 8 72H96C99.3137 72 102 69.3137 102 66V8C102 4.68629 99.3137 2 96 2Z" stroke="#FB7D09" stroke-width="3" stroke-linejoin="round"/>
<path d="M65.3337 71.9999H38.667V91.9999H65.3337V71.9999Z" stroke="#FB7D09" stroke-width="3" stroke-linejoin="round"/>
<path d="M75.3337 102H28.667L32.0003 92H72.0003L75.3337 102Z" stroke="#FB7D09" stroke-width="3" stroke-linejoin="round"/>
<path d="M2 59.2289H102" stroke="#FB7D09" stroke-width="3" stroke-linejoin="round"/>
<path d="M18.667 102H85.3337" stroke="#FB7D09" stroke-width="3" stroke-linejoin="round"/>
<path d="M73.1299 41.4699C74.5106 41.4699 75.6299 40.3371 75.6299 38.9398C75.6299 37.5424 74.5106 36.4097 73.1299 36.4097C71.7492 36.4097 70.6299 37.5424 70.6299 38.9398C70.6299 40.3371 71.7492 41.4699 73.1299 41.4699Z" stroke="#FB7D09" stroke-width="2" stroke-linejoin="round"/>
<path d="M81 38.4338H92.6452" stroke="#FB7D09" stroke-width="2" stroke-linejoin="round"/>
<path d="M73.1299 51.5904C74.5106 51.5904 75.6299 50.4576 75.6299 49.0603C75.6299 47.6629 74.5106 46.5302 73.1299 46.5302C71.7492 46.5302 70.6299 47.6629 70.6299 49.0603C70.6299 50.4576 71.7492 51.5904 73.1299 51.5904Z" stroke="#FB7D09" stroke-width="2" stroke-linejoin="round"/>
<path d="M81 49.5663H92.6452" stroke="#FB7D09" stroke-width="2" stroke-linejoin="round"/>
<path d="M47.001 12.1205H12.001V52.6024H47.001V12.1205Z" stroke="#FB7D09" stroke-width="2" stroke-linejoin="round"/>
<path d="M11.6846 28.506L45.7507 28.5634" stroke="#FB7D09" stroke-width="2" stroke-linejoin="round"/>
<path d="M15.75 17.3011L31.2017 17.1807" stroke="#FB7D09" stroke-width="2" stroke-linejoin="round"/>
<path d="M15.75 23.6265L35.75 23.506" stroke="#FB7D09" stroke-width="2" stroke-linejoin="round"/>
<path d="M28.5072 34.5301H16.459V46.5783H28.5072V34.5301Z" stroke="#FB7D09" stroke-width="2" stroke-linejoin="round"/>
<path d="M32.1211 34.5301H41.7596" stroke="#FB7D09" stroke-width="2" stroke-linejoin="round"/>
<path d="M32.1211 40.5542H41.7596" stroke="#FB7D09" stroke-width="2" stroke-linejoin="round"/>
<path d="M32.1211 46.5783H41.7596" stroke="#FB7D09" stroke-width="2" stroke-linejoin="round"/>
<path d="M91.9609 12.1205H60.75V23.9224H91.9609V12.1205Z" stroke="#FB7D09" stroke-width="2" stroke-miterlimit="10" stroke-linecap="round" stroke-linejoin="round"/>
</svg>
