<svg width="100" height="100" viewBox="0 0 100 100" fill="none" xmlns="http://www.w3.org/2000/svg">
<rect x="1" y="5" width="88" height="67.1729" rx="5" stroke="#FB7D09" stroke-width="2"/>
<path d="M1.97754 15.5288L88.0215 15.5288" stroke="#FB7D09" stroke-width="2" stroke-linecap="round"/>
<rect x="15" y="25.3369" width="84" height="59.0105" rx="5" fill="white" stroke="#FB7D09" stroke-width="2"/>
<path d="M16.3262 36.7L98.9791 36.7" stroke="#FB7D09" stroke-width="2" stroke-linecap="round"/>
<rect x="22" y="45.6737" width="39" height="31.8947" rx="3" fill="white" stroke="#FB7D09" stroke-width="2"/>
<rect x="52" y="63.1053" width="39" height="31.8947" rx="3" fill="white" stroke="#FB7D09" stroke-width="2"/>
<rect x="25.8027" y="51.0125" width="29.7029" height="2.51538" rx="1.25769" fill="#FB7D09"/>
<rect x="56.5449" y="68.3308" width="29.7029" height="2.51538" rx="1" fill="#FB7D09"/>
<rect x="25.8027" y="63.5894" width="22.7722" height="2.51538" rx="1.25769" fill="#FB7D09"/>
<rect x="25.8027" y="69.3999" width="22.7722" height="2.51538" rx="1.25769" fill="#FB7D09"/>
<rect x="56.5449" y="80.9077" width="29.7029" height="2.51538" rx="1.25769" fill="#FB7D09"/>
<rect x="57.041" y="87.1962" width="21.4285" height="2.51538" rx="1.25769" fill="#FB7D09"/>
<rect x="81.5303" y="87.1962" width="5.10203" height="2.51538" rx="1.25769" fill="#FB7D09"/>
<rect x="25.8027" y="57.3009" width="29.7029" height="2.51538" rx="1.25769" fill="#FB7D09"/>
<rect x="56.5449" y="74.6193" width="29.7029" height="2.51538" rx="1.25769" fill="#FB7D09"/>
<ellipse cx="8.14258" cy="9.99916" rx="2" ry="1.93684" fill="#FB7D09"/>
<ellipse cx="22.4277" cy="9.99916" rx="2" ry="1.93684" fill="#FB7D09"/>
<ellipse cx="15.2852" cy="9.99916" rx="2" ry="1.93684" fill="#FB7D09"/>
<ellipse cx="8.14258" cy="9.99916" rx="2" ry="1.93684" fill="#FB7D09"/>
<ellipse cx="22.4277" cy="9.99916" rx="2" ry="1.93684" fill="#FB7D09"/>
<ellipse cx="15.2852" cy="9.99916" rx="2" ry="1.93684" fill="#FB7D09"/>
<ellipse cx="22" cy="31.1158" rx="2" ry="1.93684" fill="#FB7D09"/>
<ellipse cx="36.2852" cy="31.1158" rx="2" ry="1.93684" fill="#FB7D09"/>
<ellipse cx="29.1426" cy="31.1158" rx="2" ry="1.93684" fill="#FB7D09"/>
</svg>
